<?xml version="1.0" standalone="no"?><!DOCTYPE svg PUBLIC "-//W3C//DTD SVG 1.1//EN" "http://www.w3.org/Graphics/SVG/1.1/DTD/svg11.dtd"><svg t="1557989569380" class="icon" style="" viewBox="0 0 1024 1024" version="1.1" xmlns="http://www.w3.org/2000/svg" p-id="10803" xmlns:xlink="http://www.w3.org/1999/xlink" width="32" height="32"><defs><style type="text/css"></style></defs><path d="M920.908 181.532L795.741 51.483C768.462 23.215 714.684 0 676.101 0H255.479c-38.587 0-70.073 32.771-70.073 72.778v352.313h56.071V72.784c0-7.926 6.511-14.544 14.064-14.544h420.613c4.137 0 8.949 0.552 14.002 1.562v231.375h222.855c0.994 5.262 1.522 34.005 1.522 38.441v621.608c0 7.922-6.516 14.531-14.069 14.531H255.479c-7.633 0-14.066-6.741-14.066-14.526v-105.19h-56.084v105.188c0 40.072 31.494 72.771 70.081 72.771h644.986c38.603 0 70.082-32.698 70.082-72.771V329.688c0.068-40.084-22.276-119.879-49.57-148.156z m-173.551 57.597V93.63a65.953 65.953 0 0 1 9.835 8.283l125.77 127.132a77.266 77.266 0 0 1 8.255 10.085h-143.86z" p-id="10804"></path><path d="M431.604 567.906c-15.355 0-27.733 5.267-37.13 15.796-9.398 10.531-14.097 26.412-14.097 47.64 0 20.894 4.824 36.732 14.475 47.514 9.648 10.783 21.9 16.174 36.752 16.174s27.04-5.35 36.564-16.048c9.522-10.698 14.285-26.746 14.285-48.144 0-21.145-4.637-36.919-13.908-47.325-9.273-10.404-21.585-15.607-36.941-15.607z" p-id="10805"></path><path d="M796.268 441.845H93.521c-22.091 0-40 17.909-40 40V756.6c0 22.092 17.909 40 40 40h702.746c22.091 0 40-17.908 40-40V481.845c0.001-22.092-17.909-40-39.999-40zM322.982 723.727H193.09V540.719h37.256v151.919h92.637v31.089z m173.694-22.089c-16.195 16.824-37.844 25.235-64.946 25.235-27.439 0-49.257-8.37-65.45-25.11-16.195-16.739-24.292-39.793-24.292-69.162 0-18.796 2.81-34.57 8.433-47.325 4.195-9.396 9.922-17.83 17.181-25.299 7.257-7.468 15.208-13.006 23.852-16.614 11.495-4.865 24.752-7.301 39.773-7.301 27.187 0 48.939 8.434 65.261 25.299 16.319 16.866 24.48 40.32 24.48 70.359 0 29.788-8.099 53.094-24.292 69.918z m219.509-3.336c-7.804 7.552-19.111 14.203-33.921 19.949-14.811 5.747-29.81 8.622-44.996 8.622-19.301 0-36.123-4.047-50.472-12.146-14.349-8.097-25.132-19.677-32.348-34.739-7.218-15.061-10.824-31.444-10.824-49.15 0-19.214 4.027-36.29 12.083-51.227 8.056-14.935 19.843-26.389 35.368-34.361 11.831-6.124 26.558-9.188 44.179-9.188 22.907 0 40.8 4.805 53.681 14.412 12.88 9.608 21.165 22.888 24.858 39.836l-37.004 6.923c-2.602-9.063-7.489-16.215-14.663-21.46-7.175-5.243-16.133-7.866-26.872-7.866-16.28 0-29.223 5.16-38.83 15.48-9.608 10.321-14.411 25.636-14.411 45.941 0 21.9 4.865 38.325 14.601 49.275 9.732 10.951 22.486 16.426 38.263 16.426 7.804 0 15.627-1.53 23.474-4.594 7.845-3.063 14.579-6.775 20.201-11.14v-23.41h-42.668v-31.089h80.302v73.506z" p-id="10806"></path></svg>