<?xml version="1.0" standalone="no"?><!DOCTYPE svg PUBLIC "-//W3C//DTD SVG 1.1//EN" "http://www.w3.org/Graphics/SVG/1.1/DTD/svg11.dtd"><svg t="1558422221967" class="icon" style="" viewBox="0 0 1024 1024" version="1.1" xmlns="http://www.w3.org/2000/svg" p-id="5022" xmlns:xlink="http://www.w3.org/1999/xlink" width="32" height="32"><defs><style type="text/css"></style></defs><path d="M886 552H138c-22 0-40-18-40-40s18-40 40-40h748c22 0 40 18 40 40s-18 40-40 40zM886 232H138c-22 0-40-18-40-40s18-40 40-40h748c22 0 40 18 40 40s-18 40-40 40zM886 872H138c-22 0-40-18-40-40s18-40 40-40h748c22 0 40 18 40 40s-18 40-40 40z" p-id="5023"></path></svg>