<?xml version="1.0" standalone="no"?><!DOCTYPE svg PUBLIC "-//W3C//DTD SVG 1.1//EN" "http://www.w3.org/Graphics/SVG/1.1/DTD/svg11.dtd"><svg t="1558403130773" class="icon" style="" viewBox="0 0 1137 1024" version="1.1" xmlns="http://www.w3.org/2000/svg" p-id="4305" xmlns:xlink="http://www.w3.org/1999/xlink" width="35.53125" height="32"><defs><style type="text/css"></style></defs><path d="M203.150222 822.499556H121.912889c0-126.065778 74.012444-219.192889 189.553778-271.758223a200.362667 200.362667 0 0 1-54.272-222.094222A203.093333 203.093333 0 0 1 446.976 199.111111a203.093333 203.093333 0 0 1 189.781333 129.536 200.305778 200.305778 0 0 1-54.272 222.094222c115.484444 52.508444 189.610667 145.692444 189.553778 271.758223h-81.237333c0-133.518222-109.169778-220.444444-243.825778-220.444445-134.656 0-243.825778 86.926222-243.825778 220.444445zM975.246222 995.555556h81.635556A81.066667 81.066667 0 0 0 1137.777778 914.773333V109.226667a80.213333 80.213333 0 0 0-23.608889-57.002667A81.521778 81.521778 0 0 0 1056.881778 28.444444H80.782222A81.066667 81.066667 0 0 0 0 109.226667v805.546666c0 44.657778 36.238222 80.782222 80.896 80.782223L81.351111 149.048889c0-10.695111 4.323556-20.878222 11.946667-28.387556a40.675556 40.675556 0 0 1 28.672-11.605333h893.952c22.414222 0 40.618667 18.318222 40.618666 39.936v726.016a39.992889 39.992889 0 0 1-11.946666 28.330667 40.675556 40.675556 0 0 1-28.672 11.605333h-40.618667V995.555556zM446.919111 520.533333a121.400889 121.400889 0 0 0 121.912889-120.888889c0-66.787556-54.613333-120.888889-121.912889-120.888888a121.400889 121.400889 0 0 0-121.912889 120.888888c0 66.787556 54.613333 120.888889 121.912889 120.888889z m284.501333-162.588444c0-22.243556 17.806222-40.334222 40.789334-40.334222h202.922666c10.808889 0 21.162667 4.209778 28.785778 11.776A40.220444 40.220444 0 0 1 975.075556 398.222222h-202.865778a40.789333 40.789333 0 0 1-28.842667-11.719111 40.106667 40.106667 0 0 1-11.946667-28.558222zM81.351111 995.555556h893.952v-80.611556H81.294222V995.555556z m650.126222-419.555556a40.391111 40.391111 0 0 1 40.618667-40.277333h121.912889a40.391111 40.391111 0 0 1 40.675555 40.277333 40.391111 40.391111 0 0 1-40.675555 40.277333h-121.912889a40.391111 40.391111 0 0 1-40.618667-40.277333z" p-id="4306"></path></svg>