<?xml version="1.0" standalone="no"?><!DOCTYPE svg PUBLIC "-//W3C//DTD SVG 1.1//EN" "http://www.w3.org/Graphics/SVG/1.1/DTD/svg11.dtd"><svg t="1557989105168" class="icon" style="" viewBox="0 0 1024 1024" version="1.1" xmlns="http://www.w3.org/2000/svg" p-id="8672" xmlns:xlink="http://www.w3.org/1999/xlink" width="32" height="32"><defs><style type="text/css"></style></defs><path d="M885.523 70.772h-747.049c-11.735 0-21.248 6.088-21.248 13.597v544.579c0 7.509 9.513 13.597 21.248 13.597h145.811c75.715 43.373 118.996 59.99 118.996 113.493 0 22.599-7.76 58.994-22.38 80.15h-110.493c-7.509 0-13.597 6.088-13.597 13.597l-76.748 89.847c0 7.509 6.088 13.597 13.597 13.597h636.676c7.509 0 13.597-6.088 13.597-13.597l-76.748-89.847c0-7.509-6.088-13.597-13.597-13.597h-110.494c-14.62-21.156-22.38-57.55-22.38-80.15 0-53.503 43.28-70.12 118.996-113.493h145.811c11.735 0 21.248-6.088 21.248-13.597v-544.579c0-7.509-9.514-13.597-21.248-13.597zM847.293 583.064h-670.585v-452.813h670.585v452.813z" p-id="8673"></path><path d="M205.228 396.011l45.031-4.377c2.709 15.115 8.209 26.217 16.496 33.304 8.287 7.089 19.467 10.632 33.538 10.632 14.905 0 26.137-3.152 33.696-9.459 7.556-6.306 11.335-13.681 11.335-22.124 0-5.419-1.591-10.031-4.769-13.837-3.181-3.803-8.732-7.115-16.653-9.928-5.422-1.877-17.773-5.212-37.056-10.007-24.81-6.149-42.217-13.706-52.224-22.672-14.072-12.611-21.108-27.988-21.108-46.126 0-11.673 3.308-22.594 9.929-32.757 6.618-10.163 16.155-17.903 28.613-23.219 12.455-5.317 27.492-7.974 45.109-7.974 28.77 0 50.425 6.308 64.966 18.92 14.541 12.613 22.176 29.449 22.906 50.504l-46.282 2.033c-1.981-11.778-6.23-20.248-12.743-25.407-6.516-5.159-16.289-7.74-29.317-7.74-13.447 0-23.976 2.763-31.583 8.287-4.9 3.545-7.349 8.287-7.349 14.229 0 5.422 2.292 10.060 6.879 13.915 5.836 4.9 20.014 10.007 42.529 15.322 22.516 5.317 39.168 10.816 49.957 16.496 10.789 5.682 19.232 13.447 25.329 23.297s9.147 22.022 9.147 36.51c0 13.133-3.651 25.434-10.945 36.899-7.297 11.468-17.617 19.989-30.959 25.565-13.343 5.574-29.969 8.364-49.878 8.364-28.98 0-51.234-6.697-66.764-20.092-15.532-13.394-24.81-32.916-27.832-58.558z" p-id="8674"></path><path d="M490.736 470.593v-96.472l-83.963-132.747h54.256l53.943 90.687 52.849-90.687h53.318l-84.277 133.060v96.159h-46.127z" p-id="8675"></path><path d="M632.396 396.011l45.031-4.377c2.709 15.115 8.209 26.217 16.495 33.304 8.287 7.089 19.466 10.632 33.539 10.632 14.904 0 26.136-3.152 33.695-9.459 7.557-6.306 11.335-13.681 11.335-22.124 0-5.419-1.59-10.031-4.769-13.837-3.18-3.803-8.732-7.115-16.652-9.928-5.422-1.877-17.773-5.212-37.057-10.007-24.81-6.149-42.218-13.706-52.224-22.672-14.072-12.611-21.108-27.988-21.108-46.126 0-11.673 3.307-22.594 9.928-32.757 6.619-10.163 16.157-17.903 28.613-23.219 12.455-5.317 27.492-7.974 45.11-7.974 28.769 0 50.425 6.308 64.966 18.92 14.541 12.613 22.177 29.449 22.906 50.504l-46.281 2.033c-1.981-11.778-6.23-20.248-12.743-25.407-6.516-5.159-16.289-7.74-29.317-7.74-13.447 0-23.976 2.763-31.583 8.287-4.901 3.545-7.349 8.287-7.349 14.229 0 5.422 2.292 10.060 6.879 13.915 5.837 4.9 20.013 10.007 42.529 15.322 22.516 5.316 39.168 10.816 49.957 16.496 10.788 5.682 19.232 13.447 25.329 23.297 6.097 9.85 9.146 22.022 9.146 36.51 0 13.133-3.651 25.434-10.945 36.899-7.297 11.468-17.617 19.989-30.959 25.565-13.343 5.574-29.969 8.364-49.878 8.364-28.98 0-51.233-6.697-66.765-20.092-15.532-13.394-24.807-32.916-27.83-58.558z" p-id="8676"></path></svg>